<svg xmlns="http://www.w3.org/2000/svg" version="1.1" xmlns:xlink="http://www.w3.org/1999/xlink" xmlns:svgjs="http://svgjs.dev/svgjs" width="1440" height="500" preserveAspectRatio="none" viewBox="0 0 1440 500"><g mask="url(&quot;#SvgjsMask1050&quot;)" fill="none"><rect width="1440" height="500" x="0" y="0" fill="rgba(4, 5, 5, 1)"></rect><path d="M13 500L513 0L783 0L283 500z" fill="url(&quot;#SvgjsLinearGradient1051&quot;)"></path><path d="M361.8 500L861.8 0L1212.8 0L712.8 500z" fill="url(&quot;#SvgjsLinearGradient1051&quot;)"></path><path d="M684.6 500L1184.6 0L1493.6 0L993.6 500z" fill="url(&quot;#SvgjsLinearGradient1051&quot;)"></path><path d="M1393 500L893 0L465.5 0L965.5 500z" fill="url(&quot;#SvgjsLinearGradient1052&quot;)"></path><path d="M1095.2 500L595.2 0L398.70000000000005 0L898.7 500z" fill="url(&quot;#SvgjsLinearGradient1052&quot;)"></path><path d="M802.4 500L302.4 0L-99.60000000000002 0L400.4 500z" fill="url(&quot;#SvgjsLinearGradient1052&quot;)"></path><path d="M1164.0905529900876 500L1440 224.0905529900876L1440 500z" fill="url(&quot;#SvgjsLinearGradient1051&quot;)"></path><path d="M0 500L275.9094470099124 500L 0 224.0905529900876z" fill="url(&quot;#SvgjsLinearGradient1052&quot;)"></path></g><defs><mask id="SvgjsMask1050"><rect width="1440" height="500" fill="#ffffff"></rect></mask><linearGradient x1="0%" y1="100%" x2="100%" y2="0%" id="SvgjsLinearGradient1051"><stop stop-color="rgba(23, 26, 31, 0.99)" offset="0"></stop><stop stop-opacity="0" stop-color="rgba(23, 26, 31, 0.99)" offset="0.66"></stop></linearGradient><linearGradient x1="100%" y1="100%" x2="0%" y2="0%" id="SvgjsLinearGradient1052"><stop stop-color="rgba(23, 26, 31, 0.99)" offset="0"></stop><stop stop-opacity="0" stop-color="rgba(23, 26, 31, 0.99)" offset="0.66"></stop></linearGradient></defs></svg>